# xmcd
#
# Track frame offsets: 
#        150
#        13142
#        28320
#        43690
#        56102
#        70182
#        84030
#        97747
#        112752
#        126792
#        141602
#        152517
#        163647
#        182445
#
# Disc length: 2564 seconds
#
# Revision: 10
# Processed by: cddbd v1.5.2PL0 Copyright (c) Steve Scherf et al.
# Submitted via: ExactAudioCopy v1.3
#
DISCID=af0a020e
DTITLE=Various Artist - Blues History CD1
DYEAR=1989
DGENRE=blues
TTITLE0=Muddy Waters - Louisianna Blues
TTITLE1=John Lee Hooker - Ramblin' By Myself
TTITLE2=Muddy Waters - They Call Me Muddy Waters
TTITLE3=John Lee Hooker - Walkin' The Boogie
TTITLE4=Little Walter - Blues With A Feeling
TTITLE5=Elmore James - Dust My Broom
TTITLE6=Albert King - Bad Luck Blues
TTITLE7=Elmore James - Whose Muddy Shoes
TTITLE8=Howlin Wolf - Smokestack Lightnin'
TTITLE9=J.B. Lenoir - I've Been Down For So Long
TTITLE10=Little Walter - Just You Fool
TTITLE11=J.B. Lenoir - Mama What About Your Daughter
TTITLE12=Sonny Boy Williamson - 99
TTITLE13=Buddy Guy - The First Time I Met The Blues
EXTD=
EXTT0=
EXTT1=
EXTT2=
EXTT3=
EXTT4=
EXTT5=
EXTT6=
EXTT7=
EXTT8=
EXTT9=
EXTT10=
EXTT11=
EXTT12=
EXTT13=
PLAYORDER=
